<?xml version="1.0" standalone="no"?>
<!DOCTYPE svg PUBLIC "-//W3C//DTD SVG 20010904//EN"
 "http://www.w3.org/TR/2001/REC-SVG-20010904/DTD/svg10.dtd">
<svg version="1.0" xmlns="http://www.w3.org/2000/svg"
 width="100.000000pt" height="100.000000pt" viewBox="0 0 100.000000 100.000000"
 preserveAspectRatio="xMidYMid meet">

<g transform="translate(0.000000,100.000000) scale(0.100000,-0.100000)"
fill="#000000" stroke="none">
<path d="M405 847 c-109 -37 -186 -103 -232 -202 -24 -51 -28 -73 -28 -145 0
-72 4 -94 28 -146 36 -77 104 -145 182 -181 51 -24 73 -28 145 -28 72 0 94 4
145 28 78 36 146 104 182 181 24 52 28 74 28 146 0 72 -4 94 -28 146 -57 123
-177 204 -311 211 -41 1 -88 -3 -111 -10z m236 -39 c97 -45 179 -151 195 -255
l7 -43 -116 0 -115 0 -12 31 c-15 36 -63 69 -100 69 -37 0 -85 -33 -100 -69
l-12 -31 -115 0 -116 0 7 43 c14 91 93 204 170 244 96 50 213 54 307 11z m-80
-247 c20 -20 29 -39 29 -61 0 -43 -47 -90 -90 -90 -43 0 -90 47 -90 90 0 22 9
41 29 61 20 20 39 29 61 29 22 0 41 -9 61 -29z m-161 -102 c15 -36 63 -69 100
-69 37 0 85 33 100 69 l12 31 115 0 115 0 -7 -42 c-16 -106 -96 -210 -195
-257 -79 -37 -201 -37 -280 0 -99 47 -180 152 -196 257 l-7 42 116 0 115 0 12
-31z"/>
<path d="M466 534 c-9 -8 -16 -24 -16 -34 0 -43 54 -65 84 -34 31 30 9 84 -34
84 -10 0 -26 -7 -34 -16z m64 -9 c26 -32 -13 -81 -47 -59 -23 14 -28 41 -13
59 16 19 44 19 60 0z"/>
<path d="M250 322 c0 -18 78 -82 125 -104 75 -34 181 -32 255 5 57 28 54 28
-40 -6 -102 -36 -239 -1 -309 79 -17 19 -31 31 -31 26z"/>
<path d="M709 283 c-13 -16 -12 -17 4 -4 16 13 21 21 13 21 -2 0 -10 -8 -17
-17z"/>
</g>
</svg>
